<svg width="100%" height="100%" viewBox="0 0 91 99" xmlns="http://www.w3.org/2000/svg">
    <path d="M82.0093 58.3423V38.9096C83.6372 38.5708 85.1597 37.8452 86.448 36.794C87.7363 35.7427 88.7527 34.3968 89.4111 32.8699C90.0696 31.3431 90.3508 29.6802 90.2311 28.0217C90.1113 26.3632 89.594 24.7579 88.723 23.3415C87.852 21.9251 86.6528 20.7392 85.2268 19.884C83.8008 19.0288 82.1899 18.5294 80.5302 18.4281C78.8705 18.3268 77.2108 18.6265 75.6913 19.3019C74.1719 19.9773 72.8374 21.0086 71.8005 22.3085L55.4054 12.8508C55.6179 12.0366 55.7318 11.1998 55.7447 10.3585C55.7447 7.6111 54.6533 4.97626 52.7107 3.03358C50.768 1.0909 48.1331 -0.000488281 45.3858 -0.000488281C42.6384 -0.000488281 40.0036 1.0909 38.0609 3.03358C36.1182 4.97626 35.0268 7.6111 35.0268 10.3585C35.0275 11.2992 35.1585 12.2354 35.4163 13.1401L19.0878 22.5422C18.0666 21.1842 16.7269 20.0985 15.1868 19.3807C13.6468 18.663 11.9538 18.3352 10.2571 18.4265C8.5605 18.5177 6.91239 19.0252 5.45822 19.904C4.00404 20.7828 2.7885 22.0059 1.91882 23.4656C1.04915 24.9253 0.552075 26.5765 0.471456 28.2737C0.390836 29.9709 0.729148 31.6618 1.45655 33.1973C2.18394 34.7328 3.27807 36.0657 4.64239 37.0784C6.00672 38.0911 7.59931 38.7525 9.27966 39.0041V58.2477C7.64265 58.4943 6.08864 59.1299 4.74798 60.1011C3.40732 61.0723 2.31909 62.3508 1.57458 63.8294C0.830073 65.3081 0.450986 66.9436 0.469119 68.599C0.487252 70.2544 0.902076 71.8813 1.6788 73.3432C2.45552 74.8052 3.57149 76.0596 4.93311 77.0012C6.29472 77.9428 7.86228 78.5441 9.5043 78.7548C11.1463 78.9655 12.8149 78.7794 14.3701 78.212C15.9254 77.6446 17.3218 76.7126 18.4425 75.4941L35.5331 85.3579C35.0167 86.9036 34.8722 88.5493 35.1115 90.1613C35.3507 91.7734 35.9669 93.3062 36.91 94.6352C37.8531 95.9643 39.0964 97.0521 40.539 97.8103C41.9816 98.5684 43.5827 98.9755 45.2122 98.9985C46.8417 99.0215 48.4536 98.6596 49.917 97.9424C51.3804 97.2252 52.6539 96.1729 53.6341 94.8709C54.6142 93.569 55.2734 92.0541 55.5579 90.4495C55.8425 88.8448 55.7445 87.1957 55.2718 85.6361L72.4681 75.7111C73.5973 76.8721 74.983 77.7521 76.514 78.2806C78.0449 78.809 79.6784 78.9711 81.2834 78.7539C82.8883 78.5367 84.4199 77.9462 85.7553 77.0298C87.0907 76.1134 88.1926 74.8967 88.9725 73.4773C89.7525 72.0579 90.1888 70.4754 90.2464 68.8568C90.3039 67.2383 89.9812 65.6288 89.3041 64.1576C88.627 62.6863 87.6143 61.3944 86.3474 60.3854C85.0805 59.3764 83.5947 58.6786 82.0093 58.3479V58.3423ZM70.126 25.3294C69.6101 26.7839 69.4265 28.3355 69.5886 29.8703C69.7506 31.405 70.2543 32.884 71.0627 34.1987C71.871 35.5133 72.9635 36.6303 74.2598 37.4676C75.5562 38.305 77.0237 38.8414 78.5544 39.0375V58.2032C75.8677 58.5621 73.4288 59.9603 71.7616 62.0976L47.0826 47.911V20.5561C48.4881 20.3205 49.8298 19.7972 51.0236 19.0189C52.2173 18.2406 53.2375 17.2241 54.0201 16.0331L70.126 25.3294ZM36.8572 16.2723C37.6456 17.4005 38.6509 18.3604 39.8143 19.0959C40.9777 19.8313 42.276 20.3277 43.6333 20.5561V47.9222L19.0823 62.2422C17.5314 60.1838 15.2675 58.7791 12.7345 58.3034V38.9485C14.18 38.6788 15.5515 38.1042 16.7576 37.2631C17.9638 36.4219 18.9769 35.3335 19.7296 34.0703C20.4823 32.8071 20.9572 31.398 21.1228 29.9369C21.2884 28.4757 21.1409 26.9961 20.6901 25.5965L36.8572 16.2723ZM53.7308 82.5373C52.7862 81.2342 51.5506 80.1695 50.1222 79.428C48.6938 78.6864 47.112 78.2885 45.5028 78.2658C43.8935 78.2431 42.3011 78.5963 40.8524 79.2973C39.4036 79.9983 38.1385 81.0277 37.1576 82.3036L20.334 72.59C21.3324 70.284 21.457 67.6933 20.6845 65.3021L45.3635 50.9097L70.1037 65.1018C69.2192 67.6381 69.363 70.4199 70.5043 72.8515L53.7308 82.5373Z" />
</svg>